HIERARCHY
ROOT joint_Root
{
	OFFSET 0.0 0.0 0.0
	CHANNELS 6 Xposition Yposition Zposition Zrotation Xrotation Yrotation 
	JOINT Hips
	{
		OFFSET -0.726466 93.3139 -2.00062
		CHANNELS 6 Xposition Yposition Zposition Zrotation Xrotation Yrotation 
		JOINT Spine
		{
			OFFSET 15.7357 0.0 0.0
			CHANNELS 6 Xposition Yposition Zposition Zrotation Xrotation Yrotation 
			JOINT Chest
			{
				OFFSET 8.98455 -0.406207 0.0
				CHANNELS 6 Xposition Yposition Zposition Zrotation Xrotation Yrotation 
				JOINT Neck
				{
					OFFSET 16.3773 0.0 0.0
					CHANNELS 6 Xposition Yposition Zposition Zrotation Xrotation Yrotation 
					JOINT Head
					{
						OFFSET 6.45672 0.0 0.0
						CHANNELS 6 Xposition Yposition Zposition Zrotation Xrotation Yrotation 
						End Site
						{
							OFFSET 0.0 0.0 0.0
						}
					}
				}
				JOINT Shoulder_L
				{
					OFFSET 12.9942 -0.242716 4.98039
					CHANNELS 6 Xposition Yposition Zposition Zrotation Xrotation Yrotation 
					JOINT UpperArm_L
					{
						OFFSET 5.34809 0.0 0.0
						CHANNELS 6 Xposition Yposition Zposition Zrotation Xrotation Yrotation 
						JOINT LowerArm_L
						{
							OFFSET 24.3286 1.87007e-05 0.0
							CHANNELS 6 Xposition Yposition Zposition Zrotation Xrotation Yrotation 
							JOINT Hand_L
							{
								OFFSET 22.2916 0.0 0.0
								CHANNELS 6 Xposition Yposition Zposition Zrotation Xrotation Yrotation 
								End Site
								{
									OFFSET 0.0 0.0 0.0
								}
							}
						}
					}
				}
				JOINT Shoulder_R
				{
					OFFSET 12.9945 -0.242716 -4.98039
					CHANNELS 6 Xposition Yposition Zposition Zrotation Xrotation Yrotation 
					JOINT UpperArm_R
					{
						OFFSET -5.34813 0.0 0.0
						CHANNELS 6 Xposition Yposition Zposition Zrotation Xrotation Yrotation 
						JOINT LowerArm_R
						{
							OFFSET -24.3289 0.000322201 0.0
							CHANNELS 6 Xposition Yposition Zposition Zrotation Xrotation Yrotation 
							JOINT Hand_R
							{
								OFFSET -22.2915 -0.000108084 0.0
								CHANNELS 6 Xposition Yposition Zposition Zrotation Xrotation Yrotation 
								End Site
								{
									OFFSET 0.0 0.0 0.0
								}
							}
						}
					}
				}
			}
		}
		JOINT UpperLeg_L
		{
			OFFSET -2.19248 -6.46944 0.0
			CHANNELS 6 Xposition Yposition Zposition Zrotation Xrotation Yrotation 
			JOINT LowerLeg_L
			{
				OFFSET 39.0811 0.0 -1.23785e-05
				CHANNELS 6 Xposition Yposition Zposition Zrotation Xrotation Yrotation 
				JOINT Foot_L
				{
					OFFSET 40.9854 0.0 -1.26872e-05
					CHANNELS 6 Xposition Yposition Zposition Zrotation Xrotation Yrotation 
					JOINT Toes_L
					{
						OFFSET 11.7543 0.0 0.0
						CHANNELS 6 Xposition Yposition Zposition Zrotation Xrotation Yrotation 
						End Site
						{
							OFFSET 0.0 0.0 0.0
						}
					}
				}
			}
		}
		JOINT UpperLeg_R
		{
			OFFSET -2.19251 6.46944 0.0
			CHANNELS 6 Xposition Yposition Zposition Zrotation Xrotation Yrotation 
			JOINT LowerLeg_R
			{
				OFFSET -39.0811 -0.00228153 -0.0401928
				CHANNELS 6 Xposition Yposition Zposition Zrotation Xrotation Yrotation 
				JOINT Foot_R
				{
					OFFSET -40.9854 0.0 0.0
					CHANNELS 6 Xposition Yposition Zposition Zrotation Xrotation Yrotation 
					JOINT Toes_R
					{
						OFFSET -11.7543 0.0 0.0
						CHANNELS 6 Xposition Yposition Zposition Zrotation Xrotation Yrotation 
						End Site
						{
							OFFSET 0.0 0.0 0.0
						}
					}
				}
			}
		}
	}
}
MOTION
Frames:	7
Frame Time:	0.0333333
0.000000 0.000000 0.000000 0.000000 0.000000 -0.000000 -0.619717 92.152600 0.127179 88.071500 -2.185420 4.712970 15.735700 0.000005 -0.000001 86.478300 85.041200 -85.982800 8.984550 -0.406207 -0.000000 2.135850 -0.633111 1.001960 16.377300 -0.000001 -0.000001 4.435700 -1.858120 -0.133406 6.456720 -0.000001 -0.000000 2.390920 -0.704260 0.452899 12.994200 -0.242716 4.980390 -90.076700 0.253531 -73.168000 5.348090 -0.000007 -0.000001 -66.469300 38.797500 -17.349000 24.328600 0.000019 0.000005 1.650370 3.783750 -23.586100 22.291600 -0.000001 0.000005 2.123800 5.501410 -6.590030 12.994500 -0.242716 -4.980390 87.683600 7.038900 -71.732200 -5.348130 -0.000001 -0.000004 -65.847500 39.659700 -14.773200 -24.328900 0.000322 -0.000009 2.068450 7.004360 -16.505800 -22.291500 -0.000108 -0.000004 9.582180 5.408820 -3.226230 -2.192480 -6.469440 -0.000000 -175.471000 -6.806510 -1.318510 39.081100 -0.000007 -0.000012 -0.117438 0.273289 23.254300 40.985400 -0.000006 -0.000013 -0.379482 2.464410 -67.335500 11.754300 -0.000000 0.000003 -0.000051 -0.000574 -16.599900 -2.192510 6.469440 -0.000001 179.353000 12.259100 -179.650000 -39.081100 -0.002282 -0.040193 -0.033583 0.098687 20.503100 -40.985400 0.000008 0.000006 3.642160 7.740070 -66.641100 -11.754300 -0.000006 -0.000006 -0.007599 -0.084723 -20.022700
0.000000 0.000000 0.000000 0.000000 0.000000 -0.000000 -0.621196 92.146500 0.057435 88.128300 -1.937090 4.874020 15.735700 0.000005 -0.000001 86.856000 84.978500 -86.375700 8.984550 -0.406207 -0.000000 2.264480 -0.573465 0.970899 16.377300 -0.000001 -0.000001 4.283810 -1.992850 0.097279 6.456720 -0.000001 -0.000000 2.255200 -0.870872 1.208280 12.994200 -0.242716 4.980390 -90.154700 0.510536 -73.138600 5.348090 -0.000007 -0.000001 -63.339800 37.448900 -20.713600 24.328600 0.000019 0.000005 1.552060 3.195440 -25.923600 22.291600 -0.000001 0.000005 2.574370 5.504310 -6.707560 12.994500 -0.242716 -4.980390 87.734200 6.921090 -71.822700 -5.348130 -0.000001 -0.000004 -66.187800 39.215400 -14.450100 -24.328900 0.000322 -0.000009 2.080140 7.010150 -16.581200 -22.291500 -0.000108 -0.000004 9.501830 5.406630 -3.153980 -2.192480 -6.469440 -0.000000 -175.541000 -6.593800 -1.276360 39.081100 -0.000007 -0.000012 -0.114917 0.266631 23.315900 40.985400 -0.000006 -0.000013 -0.366604 2.478520 -67.298600 11.754300 -0.000000 0.000003 -0.000046 -0.000529 -16.598100 -2.192510 6.469440 -0.000001 179.227000 12.436800 -179.547000 -39.081100 -0.002282 -0.040193 -0.040542 0.116908 20.565500 -40.985400 0.000008 0.000006 3.350150 7.718830 -66.593000 -11.754300 -0.000006 -0.000006 -0.007758 -0.086043 -20.076600
0.000000 0.000000 0.000000 0.000000 0.000000 -0.000000 -0.650740 92.145900 -0.081498 88.184700 -1.454310 5.010630 15.735700 0.000005 -0.000001 87.580300 84.934100 -87.147400 8.984550 -0.406207 -0.000000 2.358540 -0.447844 0.874250 16.377300 -0.000001 -0.000001 4.266680 -2.185430 0.341428 6.456720 -0.000001 -0.000000 2.053270 -1.254620 2.246190 12.994200 -0.242716 4.980390 -90.190500 0.629795 -73.167600 5.348090 -0.000007 -0.000001 -59.659200 33.942600 -25.165400 24.328600 0.000019 0.000005 1.103730 1.866990 -30.601300 22.291600 -0.000001 0.000005 4.307000 5.523560 -7.512910 12.994500 -0.242716 -4.980390 87.738400 6.935070 -71.888100 -5.348130 -0.000001 -0.000004 -66.370800 39.100400 -14.133800 -24.328900 0.000322 -0.000009 2.068620 7.005820 -16.503900 -22.291500 -0.000108 -0.000004 9.579280 5.406680 -3.155870 -2.192480 -6.469440 -0.000000 -175.577000 -6.286050 -1.360170 39.081100 -0.000007 -0.000012 -0.116564 0.269370 23.399700 40.985400 -0.000006 -0.000013 -0.341042 2.692830 -67.194300 11.754300 -0.000000 0.000003 -0.000041 -0.000480 -16.596200 -2.192510 6.469440 -0.000001 179.188000 12.670400 -179.528000 -39.081100 -0.002282 -0.040193 -0.039341 0.112956 20.690600 -40.985400 0.000008 0.000006 3.409910 7.454650 -66.607000 -11.754300 -0.000006 -0.000006 -0.007722 -0.085744 -20.064400
0.000000 0.000000 0.000000 0.000000 0.000000 -0.000000 -0.707224 92.146900 -0.213159 88.212300 -0.888544 5.161300 15.735700 0.000005 -0.000001 88.187900 84.896100 -87.776100 8.984550 -0.406207 -0.000000 2.438140 -0.341680 0.830118 16.377300 -0.000001 -0.000001 4.370960 -2.357300 0.574680 6.456720 -0.000001 -0.000000 1.914770 -1.662060 3.099620 12.994200 -0.242716 4.980390 -90.176800 0.587395 -73.249900 5.348090 -0.000007 -0.000001 -56.216300 28.806100 -30.047700 24.328600 0.000019 0.000005 -0.259248 -0.329881 -38.151200 22.291600 -0.000001 0.000005 6.819660 5.551510 -8.776160 12.994500 -0.242716 -4.980390 87.735700 6.981450 -71.980300 -5.348130 -0.000001 -0.000004 -66.221900 39.436400 -14.134500 -24.328900 0.000322 -0.000009 2.047980 7.098690 -16.146400 -22.291500 -0.000108 -0.000004 9.534310 5.406950 -3.164760 -2.192480 -6.469440 -0.000000 -175.546000 -6.151600 -1.433060 39.081100 -0.000007 -0.000012 -0.116100 0.267140 23.490000 40.985400 -0.000006 -0.000013 -0.289544 3.078190 -67.089700 11.754300 -0.000000 0.000003 -0.000050 -0.000571 -16.599700 -2.192510 6.469440 -0.000001 179.174000 12.997700 -179.456000 -39.081100 -0.002282 -0.040193 -0.039405 0.112764 20.751100 -40.985400 0.000008 0.000006 3.390910 7.203900 -66.580900 -11.754300 -0.000006 -0.000006 -0.007642 -0.085085 -20.037500
0.000000 0.000000 0.000000 0.000000 0.000000 -0.000000 -0.766425 92.155400 -0.344719 88.226600 -0.357822 5.253750 15.735700 0.000005 -0.000001 88.468200 84.904800 -88.060200 8.984550 -0.406207 -0.000000 2.421830 -0.291210 0.821270 16.377300 -0.000001 -0.000001 4.452950 -2.545290 0.796035 6.456720 -0.000001 -0.000000 2.009460 -1.947470 3.731460 12.994200 -0.242716 4.980390 -90.071700 0.236936 -73.156000 5.348090 -0.000007 -0.000001 -53.877500 22.562800 -34.985700 24.328600 0.000019 0.000005 -0.850476 -0.757160 -48.328500 22.291600 -0.000001 0.000005 10.365100 5.576100 -10.002800 12.994500 -0.242716 -4.980390 87.692600 7.108300 -71.964000 -5.348130 -0.000001 -0.000004 -65.825900 39.817500 -14.340400 -24.328900 0.000322 -0.000009 2.033560 7.250760 -15.720500 -22.291500 -0.000108 -0.000004 9.479730 5.406870 -3.161970 -2.192480 -6.469440 -0.000000 -175.488000 -6.066400 -1.529110 39.081100 -0.000007 -0.000012 -0.117471 0.269827 23.526300 40.985400 -0.000006 -0.000013 -0.229303 3.554060 -66.964700 11.754300 -0.000000 0.000003 -0.000042 -0.000488 -16.596600 -2.192510 6.469440 -0.000001 179.201000 13.323200 -179.436000 -39.081100 -0.002282 -0.040193 -0.035399 0.102020 20.782900 -40.985400 0.000008 0.000006 3.527170 6.949860 -66.558100 -11.754300 -0.000006 -0.000006 -0.007402 -0.083078 -19.955500
0.000000 0.000000 0.000000 0.000000 0.000000 -0.000000 -0.802970 92.173900 -0.460201 88.306700 -0.102433 5.295790 15.735700 0.000005 -0.000001 88.360300 84.932700 -87.946600 8.984550 -0.406207 -0.000000 2.365630 -0.309259 0.832870 16.377300 -0.000001 -0.000001 4.424420 -2.621750 0.816893 6.456720 -0.000001 -0.000000 2.199560 -2.114260 4.228480 12.994200 -0.242716 4.980390 -89.837500 -0.535023 -73.107500 5.348090 -0.000007 -0.000001 -53.374300 15.306800 -39.656400 24.328600 0.000019 0.000005 -0.474178 -0.276273 -59.774900 22.291600 -0.000001 0.000005 14.198600 5.600110 -11.348000 12.994500 -0.242716 -4.980390 87.636300 7.261260 -71.913900 -5.348130 -0.000001 -0.000004 -65.487200 39.722800 -14.674400 -24.328900 0.000322 -0.000009 2.071760 7.617340 -15.271700 -22.291500 -0.000108 -0.000004 9.557200 5.409850 -3.260390 -2.192480 -6.469440 -0.000000 -175.561000 -5.904710 -1.549540 39.081100 -0.000007 -0.000012 -0.113252 0.261540 23.413600 40.985400 -0.000006 -0.000013 -0.231457 3.657920 -66.805700 11.754300 -0.000000 0.000003 -0.000049 -0.000558 -16.599200 -2.192510 6.469440 -0.000001 179.127000 13.514100 -179.437000 -39.081100 -0.002282 -0.040193 -0.037201 0.106930 20.754000 -40.985400 0.000008 0.000006 3.482980 6.929950 -66.480200 -11.754300 -0.000006 -0.000006 -0.007369 -0.082804 -19.944400
0.000000 0.000000 0.000000 0.000000 0.000000 -0.000000 -0.831156 92.181900 -0.538549 88.264800 -0.114893 5.236560 15.735700 0.000005 -0.000001 87.744800 84.987100 -87.263500 8.984550 -0.406207 -0.000000 2.254060 -0.417373 0.969988 16.377300 -0.000001 -0.000001 4.418640 -2.613540 0.795510 6.456720 -0.000001 -0.000000 2.179040 -2.106710 4.570990 12.994200 -0.242716 4.980390 -89.554000 -1.459380 -73.004900 5.348090 -0.000007 -0.000001 -54.437700 7.488210 -44.865900 24.328600 0.000019 0.000005 -0.785458 -0.282598 -70.212700 22.291600 -0.000001 0.000005 17.540400 5.616030 -12.351500 12.994500 -0.242716 -4.980390 87.583700 7.409610 -71.881200 -5.348130 -0.000001 -0.000004 -65.256700 39.195600 -15.004400 -24.328900 0.000322 -0.000009 2.070980 7.682410 -15.143600 -22.291500 -0.000108 -0.000004 9.855850 5.407370 -3.178300 -2.192480 -6.469440 -0.000000 -175.511000 -5.912750 -1.684280 39.081100 -0.000007 -0.000012 -0.114630 0.264401 23.439100 40.985400 -0.000006 -0.000013 -0.250195 3.652780 -66.753500 11.754300 -0.000000 0.000003 -0.000045 -0.000518 -16.597700 -2.192510 6.469440 -0.000001 179.200000 13.590000 -179.526000 -39.081100 -0.002282 -0.040193 -0.037243 0.107267 20.714200 -40.985400 0.000008 0.000006 3.539900 6.984790 -66.421400 -11.754300 -0.000006 -0.000006 -0.007762 -0.086080 -20.078100
